<?xml version="1.0" encoding="UTF-8" standalone="no"?>
<!-- Generator: Adobe Illustrator 21.1.0, SVG Export Plug-In . SVG Version: 6.00 Build 0)  -->

<svg
   xmlns:dc="http://purl.org/dc/elements/1.1/"
   xmlns:cc="http://creativecommons.org/ns#"
   xmlns:rdf="http://www.w3.org/1999/02/22-rdf-syntax-ns#"
   xmlns:svg="http://www.w3.org/2000/svg"
   xmlns="http://www.w3.org/2000/svg"
   xmlns:sodipodi="http://sodipodi.sourceforge.net/DTD/sodipodi-0.dtd"
   xmlns:inkscape="http://www.inkscape.org/namespaces/inkscape"
   version="1.1"
   id="Layer_1"
   x="0px"
   y="0px"
   viewBox="0 0 300 300"
   style="enable-background:new 0 0 300 300;"
   xml:space="preserve"
   sodipodi:docname="flock.svg"
   inkscape:version="0.92.2 (5c3e80d, 2017-08-06)"><metadata
     id="metadata10470"><rdf:RDF><cc:Work
         rdf:about=""><dc:format>image/svg+xml</dc:format><dc:type
           rdf:resource="http://purl.org/dc/dcmitype/StillImage" /><dc:title></dc:title></cc:Work></rdf:RDF></metadata><defs
     id="defs10468" /><sodipodi:namedview
     pagecolor="#ffffff"
     bordercolor="#666666"
     borderopacity="1"
     objecttolerance="10"
     gridtolerance="10"
     guidetolerance="10"
     inkscape:pageopacity="0"
     inkscape:pageshadow="2"
     inkscape:window-width="1680"
     inkscape:window-height="956"
     id="namedview10466"
     showgrid="false"
     inkscape:zoom="0.39333333"
     inkscape:cx="-449.03057"
     inkscape:cy="141.13691"
     inkscape:window-x="0"
     inkscape:window-y="22"
     inkscape:window-maximized="0"
     inkscape:current-layer="Layer_1" /><style
     type="text/css"
     id="style10453">
	.st0{display:none;}
	.st1{fill:#FFFFFF;fill-opacity:0.4;}
	.st2{fill:#324049;}
</style><g
     id="Layer_3"
     class="st0" /><g
     id="Layer_3_1_"
     class="st0" /><path
     style="fill:#ffffff;fill-opacity:1"
     d="M 143.71094 4.6386719 C 84.454799 5.2867126 29.337891 42.4375 8.4003906 101.5 C -18.399609 177.2 21.200391 260.2 96.900391 287 C 138.70039 301.8 185 296.69922 222.5 273.19922 C 226.3 271.39922 229.60039 270.29961 231.40039 271.09961 C 250.70039 279.19961 271.80039 281.69961 292.40039 278.09961 C 296.00039 277.49961 305.3 274.09922 296 267.19922 C 286.7 260.29922 275.00039 250.99961 273.90039 234.59961 C 273.30039 225.79961 275.80078 216.00078 278.30078 208.80078 C 279.80078 205.50078 281.20039 201.99961 282.40039 198.59961 L 282.40039 198.5 C 309.20039 122.9 269.60078 39.8 193.80078 13 C 177.21953 7.1375 160.30266 4.4572205 143.71094 4.6386719 z M 102.59961 84.099609 L 200.30078 84.099609 C 209.40078 84.099609 216.69922 91.4 216.69922 100.5 L 216.69922 101.19922 C 216.69922 110.29922 209.40078 117.59961 200.30078 117.59961 L 102.59961 117.59961 C 93.499607 117.59961 86.199219 110.29922 86.199219 101.19922 L 86.199219 100.5 C 86.099219 91.4 93.499607 84.099609 102.59961 84.099609 z M 102.59961 133.80078 L 164.30078 133.80078 C 173.40078 133.80078 180.69922 141.09922 180.69922 150.19922 L 180.69922 151 C 180.69922 160.1 173.40078 167.40039 164.30078 167.40039 L 102.59961 167.40039 C 93.499608 167.40039 86.199219 160.1 86.199219 151 L 86.199219 150.19922 C 86.099219 141.09922 93.499608 133.80078 102.59961 133.80078 z M 102.59961 182.59961 L 113.80078 182.59961 C 122.90078 182.59961 130.19922 189.9 130.19922 199 L 130.19922 199.69922 C 130.19922 208.79922 122.90078 216.09961 113.80078 216.09961 L 102.59961 216.09961 C 93.499609 216.09961 86.199219 208.79922 86.199219 199.69922 L 86.199219 199 C 86.099219 189.9 93.499609 182.59961 102.59961 182.59961 z "
     id="path10457" /></svg>